<svg version="1.1" id="Layer_1" xmlns="http://www.w3.org/2000/svg" xmlns:xlink="http://www.w3.org/1999/xlink" x="0px" y="0px"
	 width="100%" viewBox="0 0 114 114" enable-background="new 0 0 114 114" xml:space="preserve">
<path fill="#217BDF" opacity="1.000000" stroke="none" 
	d="
M89.000000,1.000000 
	C89.750000,1.000000 90.500000,1.000000 91.652344,1.366325 
	C92.708176,3.804936 93.361664,5.877220 93.859657,8.220950 
	C95.702774,13.449368 95.849449,18.316099 92.865921,23.312881 
	C92.493271,24.361673 92.250168,25.134197 91.687469,26.126350 
	C86.493240,28.846743 81.692719,28.990129 76.996468,25.682152 
	C76.998894,25.470213 77.000259,25.046310 76.941093,24.718132 
	C76.257080,23.245287 75.632233,22.100622 74.941971,20.687904 
	C74.596756,19.952862 74.316948,19.485870 74.006889,18.655186 
	C74.313164,14.845838 74.649689,11.400183 75.050751,7.684474 
	C75.397682,6.943585 75.680084,6.472751 76.287270,5.885121 
	C77.408028,4.178885 78.204018,2.589443 79.000000,1.000001 
	C80.066521,1.000000 81.133034,1.000000 82.896309,1.199293 
	C85.395378,1.265724 87.197685,1.132862 89.000000,1.000000 
z"/>
<path fill="#358FF3" opacity="1.000000" stroke="none" 
	d="
M91.000000,115.000000 
	C87.307091,115.000000 83.614182,115.000000 79.325684,114.725655 
	C78.150978,113.619415 77.571869,112.787521 76.933090,111.651260 
	C76.585930,110.574669 76.298416,109.802460 75.935089,108.678436 
	C73.133171,103.934486 73.312614,99.739334 76.164345,95.353790 
	C77.285507,93.629623 77.427109,91.268486 78.358429,89.124611 
	C79.790535,88.675568 80.879013,88.299324 82.292511,88.143295 
	C88.757065,88.197342 92.342537,91.285820 93.992821,97.065506 
	C94.215050,97.843803 95.343307,98.363411 96.227509,99.216599 
	C96.603996,99.939697 96.804993,100.448997 96.795029,101.236061 
	C94.722710,106.009216 92.861359,110.504608 91.000000,115.000000 
z"/>
<path fill="#358FF3" opacity="1.000000" stroke="none" 
	d="
M64.000000,115.000000 
	C60.307091,115.000000 56.614182,115.000000 52.385509,114.646767 
	C48.777256,107.719116 44.868656,101.474388 49.883461,93.809082 
	C52.072903,90.462448 54.026199,88.914116 58.051235,88.865288 
	C62.042076,88.816872 63.889114,90.367928 65.554840,93.811981 
	C67.871666,98.602234 70.153053,103.054413 66.644157,108.187508 
	C66.395515,108.551231 66.868286,109.408089 66.945831,110.340912 
	C66.593262,111.423164 66.300476,112.200165 65.723030,113.079628 
	C64.958916,113.788071 64.479462,114.394035 64.000000,115.000000 
z"/>
<path fill="#358FF3" opacity="1.000000" stroke="none" 
	d="
M37.000000,115.000000 
	C33.307091,115.000000 29.614182,115.000000 25.386082,114.637756 
	C22.578363,107.831848 18.181879,101.667717 22.225727,94.383667 
	C22.267067,94.309212 22.076551,94.106041 22.054043,93.657974 
	C22.406487,92.576645 22.699165,91.800293 23.347443,90.890930 
	C27.817411,90.165443 31.931786,89.572952 36.285343,89.007881 
	C36.524529,89.035294 36.986065,89.172501 37.071358,89.514053 
	C42.199497,97.718605 42.933929,105.613846 37.375454,113.583603 
	C37.112972,113.959953 37.119015,114.523582 37.000000,115.000000 
z"/>
<path fill="#217BDF" opacity="1.000000" stroke="none" 
	d="
M54.000000,1.000000 
	C54.444336,1.000000 54.888672,1.000000 55.985901,1.204484 
	C61.933159,1.448645 64.642654,4.425508 66.720779,9.091784 
	C68.457397,12.991236 69.267052,16.352152 67.150291,20.281555 
	C66.081291,22.265974 65.687531,24.614143 64.529633,26.870747 
	C59.719643,26.979179 55.368481,27.014711 51.012447,26.796577 
	C51.006500,26.373779 51.005424,26.204643 50.930618,25.676201 
	C47.973278,20.197397 46.440647,14.840748 48.066277,8.627918 
	C49.095123,6.886677 50.040562,5.461859 51.268051,3.882636 
	C52.366741,2.818820 53.183369,1.909410 54.000000,1.000000 
z"/>
<path fill="#237BDF" opacity="1.000000" stroke="none" 
	d="
M1.000000,28.000000 
	C1.000000,18.999918 1.000000,9.999836 1.000000,1.000000 
	C3.063390,1.000000 5.033790,1.000000 7.616432,1.085173 
	C8.228673,1.170347 8.637336,1.210093 8.637336,1.210093 
	C8.637336,1.210093 9.000000,1.000000 9.000000,1.000000 
	C9.750000,1.000000 10.500000,1.000000 11.625607,1.371599 
	C12.004071,2.486393 12.006927,3.229588 11.884167,4.179284 
	C12.182460,4.924079 12.606370,5.462372 13.211515,6.211919 
	C13.600462,6.934481 13.808174,7.445790 13.859705,8.238113 
	C14.468159,11.690742 15.232794,14.862355 15.938297,18.339783 
	C15.586654,19.421507 15.294143,20.197420 14.689550,21.087517 
	C13.585471,22.482065 12.793473,23.762426 11.979448,25.357536 
	C11.655364,26.433384 11.353308,27.194485 10.593941,27.961338 
	C7.091087,27.978062 4.045544,27.989031 1.000000,28.000000 
z"/>
<path fill="#237BDF" opacity="1.000000" stroke="none" 
	d="
M106.000000,1.000000 
	C108.963043,1.000000 111.926086,1.000000 115.000000,1.000000 
	C115.000000,9.687318 115.000000,18.374996 114.555237,27.530609 
	C110.737503,27.328934 107.364525,26.659325 103.995621,25.994747 
	C103.999687,25.999781 103.998657,25.992847 103.967941,25.662472 
	C103.279076,24.554306 102.620941,23.776514 101.786377,22.784683 
	C101.407623,22.059036 101.205284,21.547428 101.155823,20.765100 
	C101.539146,16.984537 101.769600,13.474692 102.126968,9.682585 
	C102.496559,8.615160 102.739250,7.830000 103.212036,6.795469 
	C104.294754,4.697400 105.147377,2.848700 106.000000,1.000000 
z"/>
<path fill="#3790F3" opacity="1.000000" stroke="none" 
	d="
M10.000002,115.000000 
	C7.034985,115.000000 4.069971,115.000000 1.000000,115.000000 
	C1.000000,105.645973 1.000000,96.291649 1.251704,86.469872 
	C1.671210,86.003036 1.839013,86.003647 2.063701,86.379326 
	C2.910550,87.465973 3.586543,88.446182 4.511848,88.838760 
	C7.289980,90.017418 10.165392,90.966789 13.133125,92.291855 
	C13.512059,93.373390 13.760715,94.168686 13.854259,95.228149 
	C15.148007,99.722176 15.921858,103.941956 13.623649,108.161079 
	C13.529436,108.334038 13.871189,108.744476 13.951694,109.350998 
	C13.597633,110.434341 13.301702,111.210968 12.707607,112.087509 
	C11.606299,113.124954 10.803151,114.062477 10.000002,115.000000 
z"/>
<path fill="#2B84E8" opacity="1.000000" stroke="none" 
	d="
M115.000000,31.000000 
	C115.000000,39.354233 115.000000,47.708466 114.558090,56.528473 
	C109.881058,57.101032 105.517891,57.559830 102.940193,52.646954 
	C102.589134,51.572155 102.296234,50.800583 101.928459,49.667698 
	C98.862411,45.146420 101.572472,41.049797 101.989174,36.700035 
	C101.987213,36.472355 101.988060,36.016979 102.313904,35.894669 
	C105.528923,30.993542 110.049980,30.441271 115.000000,31.000000 
z"/>
<path fill="#338CF0" opacity="1.000000" stroke="none" 
	d="
M115.000000,60.000000 
	C115.000000,68.354233 115.000000,76.708466 114.555099,85.529144 
	C110.738007,85.313545 107.365814,84.631500 103.926620,83.624878 
	C103.244720,81.878304 102.629829,80.456299 101.937866,78.674545 
	C98.099167,68.189468 103.973412,60.001335 115.000000,60.000000 
z"/>
<path fill="#3790F3" opacity="1.000000" stroke="none" 
	d="
M115.000000,89.000000 
	C115.000000,97.551163 115.000000,106.102318 115.000000,115.000000 
	C111.999908,115.000000 108.986519,115.000000 105.458511,114.625847 
	C103.724762,111.354340 102.367020,108.504959 101.341103,105.540741 
	C100.771278,103.894318 100.192276,101.918190 100.582474,100.327385 
	C102.808167,91.253502 105.817986,89.009766 115.000000,89.000000 
z"/>
<path fill="#328CF0" opacity="1.000000" stroke="none" 
	d="
M2.006816,86.004250 
	C1.839013,86.003647 1.671210,86.003036 1.251704,86.001213 
	C1.000000,77.645767 1.000000,69.291534 1.454468,60.468025 
	C4.943434,59.998657 7.977931,59.998573 11.005657,59.998825 
	C10.998885,59.999157 11.000723,59.988003 11.031067,60.318810 
	C11.708966,61.435764 12.356522,62.221912 13.134830,63.292255 
	C13.515056,64.368706 13.764530,65.160957 13.858813,66.220001 
	C14.210527,70.313263 16.733879,74.088196 13.813276,78.218628 
	C13.416294,78.971138 13.203888,79.502571 12.862227,80.314705 
	C12.487938,81.378448 12.242903,82.161499 11.746754,83.211815 
	C8.332699,84.320808 5.169757,85.162529 2.006816,86.004250 
z"/>
<path fill="#2B84E8" opacity="1.000000" stroke="none" 
	d="
M1.000000,57.000000 
	C1.000000,48.645767 1.000000,40.291534 1.455294,31.468586 
	C4.954055,31.004478 7.997523,31.009089 11.220419,31.222641 
	C11.605749,31.938738 11.811653,32.445889 11.862717,33.222366 
	C11.859321,34.425083 11.702555,35.596375 12.210571,36.254528 
	C16.592749,41.931744 15.279049,47.461491 11.841419,53.325615 
	C9.380751,58.789631 4.728973,56.423756 1.000000,57.000000 
z"/>
<path fill="#4397F4" opacity="1.000000" stroke="none" 
	d="
M37.333332,115.000000 
	C37.119015,114.523582 37.112972,113.959953 37.375454,113.583603 
	C42.933929,105.613846 42.199497,97.718605 37.407494,89.452843 
	C38.110352,89.089890 38.562370,89.129684 39.093277,89.513199 
	C40.642467,93.216194 42.112770,96.575470 43.583073,99.934746 
	C44.244572,99.911369 44.906075,99.887993 45.567577,99.864616 
	C47.331329,95.171783 49.095081,90.478943 50.857334,85.836449 
	C50.855831,85.886795 50.760021,85.855682 51.240784,85.883423 
	C55.547070,85.950333 59.372589,85.989510 63.386517,86.250893 
	C64.051163,87.309334 64.527397,88.145561 65.156708,89.296211 
	C67.101768,93.170036 68.893776,96.729439 71.348808,101.605812 
	C73.708229,96.378723 75.333084,92.778984 77.223053,89.131287 
	C77.663712,89.121361 77.839249,89.159386 78.014793,89.197418 
	C77.427109,91.268486 77.285507,93.629623 76.164345,95.353790 
	C73.312614,99.739334 73.133171,103.934486 75.620209,108.562408 
	C74.104980,107.259697 72.828804,105.721230 71.238518,103.804085 
	C69.476723,106.397743 68.241165,108.216698 67.005608,110.035645 
	C66.868286,109.408089 66.395515,108.551231 66.644157,108.187508 
	C70.153053,103.054413 67.871666,98.602234 65.554840,93.811981 
	C63.889114,90.367928 62.042076,88.816872 58.051235,88.865288 
	C54.026199,88.914116 52.072903,90.462448 49.883461,93.809082 
	C44.868656,101.474388 48.777256,107.719116 51.924873,114.646767 
	C51.555553,115.000000 51.111111,115.000000 50.259178,114.645874 
	C48.290474,110.896713 46.729248,107.501686 45.168026,104.106659 
	C44.645283,104.200729 44.122540,104.294807 43.599796,104.388885 
	C42.066532,107.925926 40.533264,111.462959 39.000000,115.000000 
	C38.555553,115.000000 38.111111,115.000000 37.333332,115.000000 
z"/>
<path fill="#4397F4" opacity="1.000000" stroke="none" 
	d="
M115.000000,88.625000 
	C105.817986,89.009766 102.808167,91.253502 100.582474,100.327385 
	C100.192276,101.918190 100.771278,103.894318 101.341103,105.540741 
	C102.367020,108.504959 103.724762,111.354340 104.971939,114.625847 
	C104.555557,115.000000 104.111107,115.000000 103.307327,114.626282 
	C101.570915,111.004417 100.193832,107.756264 98.816757,104.508110 
	C98.317184,104.515900 97.817619,104.523682 97.318054,104.531471 
	C95.545372,108.020981 93.772690,111.510490 92.000000,115.000000 
	C92.000000,115.000000 91.500000,115.000000 91.250000,115.000000 
	C92.861359,110.504608 94.722710,106.009216 97.109695,101.115547 
	C101.232765,95.688454 104.030090,90.356232 103.993629,83.949455 
	C107.365814,84.631500 110.738007,85.313545 114.555099,85.997795 
	C115.000000,86.750000 115.000000,87.500000 115.000000,88.625000 
z"/>
<path fill="#1B75DB" opacity="1.000000" stroke="none" 
	d="
M50.986000,4.037041 
	C50.040562,5.461859 49.095123,6.886677 47.842880,8.876175 
	C46.064537,13.018932 43.746273,12.909124 40.996796,10.576437 
	C40.002708,8.156101 39.013214,6.100519 38.175095,3.822138 
	C38.217651,2.732893 38.108826,1.866446 38.000000,1.000000 
	C42.024544,1.000000 46.049088,1.000000 50.430157,1.254287 
	C50.853119,2.351396 50.919559,3.194219 50.986000,4.037041 
z"/>
<path fill="#1B75DB" opacity="1.000000" stroke="none" 
	d="
M102.981941,7.044839 
	C102.739250,7.830000 102.496559,8.615160 101.821152,9.792482 
	C100.231407,11.246143 99.074379,12.307641 97.721672,13.548670 
	C96.350174,11.476846 95.182663,9.713174 94.015152,7.949503 
	C93.361664,5.877220 92.708176,3.804936 92.027344,1.366325 
	C95.692909,1.000000 99.385818,1.000000 103.475891,1.330096 
	C103.576012,3.455074 103.278976,5.249956 102.981941,7.044839 
z"/>
<path fill="#3F92EF" opacity="1.000000" stroke="none" 
	d="
M115.000000,59.625000 
	C103.973412,60.001335 98.099167,68.189468 101.631454,78.562012 
	C100.255180,77.770287 99.108238,76.731354 97.991783,75.720039 
	C96.209549,77.618774 94.606606,79.326492 93.075363,80.678726 
	C94.441208,77.529625 95.735344,74.736023 97.341011,71.818108 
	C101.802643,66.121338 104.704826,60.192970 102.998344,52.950176 
	C105.517891,57.559830 109.881058,57.101032 114.558090,56.997124 
	C115.000000,57.750000 115.000000,58.500000 115.000000,59.625000 
z"/>
<path fill="#1B75DB" opacity="1.000000" stroke="none" 
	d="
M75.962494,6.001918 
	C75.680084,6.472751 75.397682,6.943585 74.830116,7.926353 
	C73.512421,10.003687 72.479889,11.569087 70.847160,14.044431 
	C68.613197,9.060680 66.806595,5.030340 65.000000,1.000000 
	C69.024544,1.000000 73.049088,1.000000 77.387245,1.303058 
	C77.121407,3.071383 76.541946,4.536651 75.962494,6.001918 
z"/>
<path fill="#1B75DB" opacity="1.000000" stroke="none" 
	d="
M12.009785,3.972783 
	C12.006927,3.229588 12.004071,2.486393 12.000607,1.371599 
	C15.692909,1.000000 19.385818,1.000000 23.535278,1.336105 
	C23.981773,2.120270 23.971714,2.568331 23.784035,3.227457 
	C23.401756,3.947251 23.197096,4.455978 22.761307,5.213752 
	C21.018532,8.039955 19.506886,10.617111 17.748142,13.615532 
	C16.172834,11.227225 15.094360,9.592162 14.015886,7.957099 
	C13.808174,7.445790 13.600462,6.934481 13.137251,5.933722 
	C12.591097,4.953775 12.300441,4.463279 12.009785,3.972783 
z"/>
<path fill="#2E82E0" opacity="1.000000" stroke="none" 
	d="
M64.550018,1.000000 
	C66.806595,5.030340 68.613197,9.060680 70.847160,14.044431 
	C72.479889,11.569087 73.512421,10.003687 74.765579,8.196407 
	C74.649689,11.400183 74.313164,14.845838 73.711136,18.563206 
	C71.424500,17.423935 69.922462,17.588541 68.945160,20.112514 
	C68.064034,22.388103 66.994507,24.590740 65.751663,26.873739 
	C65.326317,26.880564 65.157379,26.839201 64.988449,26.797840 
	C65.687531,24.614143 66.081291,22.265974 67.150291,20.281555 
	C69.267052,16.352152 68.457397,12.991236 66.720779,9.091784 
	C64.642654,4.425508 61.933159,1.448645 56.319397,1.204484 
	C58.700016,1.000000 61.400028,1.000000 64.550018,1.000000 
z"/>
<path fill="#328DF3" opacity="1.000000" stroke="none" 
	d="
M66.945831,110.340912 
	C68.241165,108.216698 69.476723,106.397743 71.238518,103.804085 
	C72.828804,105.721230 74.104980,107.259697 75.696030,108.914207 
	C76.298416,109.802460 76.585930,110.574669 76.781410,111.875656 
	C76.792923,113.269615 76.896461,114.134811 77.000000,115.000000 
	C73.638710,115.000000 70.277428,115.000000 66.457993,114.663025 
	C66.002464,113.876419 66.005074,113.426788 66.007690,112.977158 
	C66.300476,112.200165 66.593262,111.423164 66.945831,110.340912 
z"/>
<path fill="#328DF3" opacity="1.000000" stroke="none" 
	d="
M13.005768,111.987595 
	C13.301702,111.210968 13.597633,110.434341 14.174223,109.106720 
	C15.461351,107.175583 16.467825,105.795425 18.405470,103.138374 
	C20.253391,107.909119 21.626696,111.454559 23.000000,115.000000 
	C19.638655,115.000000 16.277308,115.000000 12.587791,114.708786 
	C12.508336,113.607582 12.757051,112.797585 13.005768,111.987595 
z"/>
<path fill="#328DF3" opacity="1.000000" stroke="none" 
	d="
M39.458069,115.000000 
	C40.533264,111.462959 42.066532,107.925926 43.599796,104.388885 
	C44.122540,104.294807 44.645283,104.200729 45.168026,104.106659 
	C46.729248,107.501686 48.290474,110.896713 49.925850,114.645874 
	C46.638714,115.000000 43.277424,115.000000 39.458069,115.000000 
z"/>
<path fill="#328DF3" opacity="1.000000" stroke="none" 
	d="
M92.458069,115.000000 
	C93.772690,111.510490 95.545372,108.020981 97.318054,104.531471 
	C97.817619,104.523682 98.317184,104.515900 98.816757,104.508110 
	C100.193832,107.756264 101.570915,111.004417 102.973999,114.626282 
	C99.638710,115.000000 96.277428,115.000000 92.458069,115.000000 
z"/>
<path fill="#4397F4" opacity="1.000000" stroke="none" 
	d="
M23.333332,115.000000 
	C21.626696,111.454559 20.253391,107.909119 18.405470,103.138374 
	C16.467825,105.795425 15.461351,107.175583 14.232352,108.800003 
	C13.871189,108.744476 13.529436,108.334038 13.623649,108.161079 
	C15.921858,103.941956 15.148007,99.722176 14.077369,95.470497 
	C15.459456,96.827499 16.463322,98.206306 17.810371,100.056488 
	C19.471077,97.637802 20.732677,95.800377 21.994278,93.962959 
	C22.076551,94.106041 22.267067,94.309212 22.225727,94.383667 
	C18.181879,101.667717 22.578363,107.831848 24.925446,114.637756 
	C24.555555,115.000000 24.111111,115.000000 23.333332,115.000000 
z"/>
<path fill="#378AE7" opacity="1.000000" stroke="none" 
	d="
M115.000000,30.625000 
	C110.049980,30.441271 105.528923,30.993542 102.396286,35.521935 
	C102.765732,32.177578 103.378639,29.083647 103.991547,25.989716 
	C107.364525,26.659325 110.737503,27.328934 114.555237,27.999271 
	C115.000000,28.750000 115.000000,29.500000 115.000000,30.625000 
z"/>
<path fill="#3F92EF" opacity="1.000000" stroke="none" 
	d="
M1.000000,57.375000 
	C4.728973,56.423756 9.380751,58.789631 12.098279,53.324265 
	C12.689229,52.996296 12.860497,52.994678 12.998703,53.361389 
	C12.314570,55.819302 11.663499,57.908897 11.012428,59.998489 
	C7.977931,59.998573 4.943434,59.998657 1.454468,59.999371 
	C1.000000,59.250000 1.000000,58.500000 1.000000,57.375000 
z"/>
<path fill="#378AE7" opacity="1.000000" stroke="none" 
	d="
M11.040991,31.013699 
	C7.997523,31.009089 4.954055,31.004478 1.455294,30.999935 
	C1.000000,30.250000 1.000000,29.500000 1.000000,28.375000 
	C4.045544,27.989031 7.091087,27.978062 10.580019,28.344444 
	C11.029267,29.485764 11.035130,30.249731 11.040991,31.013699 
z"/>
<path fill="#2E82E0" opacity="1.000000" stroke="none" 
	d="
M23.961655,3.016391 
	C23.971714,2.568331 23.981773,2.120270 23.995914,1.336105 
	C28.356899,1.000000 32.713799,1.000000 37.535347,1.000000 
	C38.108826,1.866446 38.217651,2.732893 37.853729,3.615857 
	C32.907879,3.427046 28.434767,3.221718 23.961655,3.016391 
z"/>
<path fill="#2E82E0" opacity="1.000000" stroke="none" 
	d="
M103.212036,6.795468 
	C103.278976,5.249956 103.576012,3.455074 103.936523,1.330096 
	C104.444443,1.000000 104.888893,1.000000 105.666672,1.000000 
	C105.147377,2.848700 104.294754,4.697400 103.212036,6.795468 
z"/>
<path fill="#2E82E0" opacity="1.000000" stroke="none" 
	d="
M51.268055,3.882636 
	C50.919559,3.194219 50.853119,2.351396 50.893341,1.254287 
	C51.750000,1.000000 52.500000,1.000000 53.625000,1.000000 
	C53.183369,1.909410 52.366741,2.818820 51.268055,3.882636 
z"/>
<path fill="#2E82E0" opacity="1.000000" stroke="none" 
	d="
M76.287270,5.885122 
	C76.541946,4.536651 77.121407,3.071383 77.850433,1.303058 
	C78.000000,1.000000 78.500000,1.000000 78.750000,1.000001 
	C78.204018,2.589443 77.408028,4.178885 76.287270,5.885122 
z"/>
<path fill="#2E82E0" opacity="1.000000" stroke="none" 
	d="
M88.571533,1.000000 
	C87.197685,1.132862 85.395378,1.265724 83.296532,1.199293 
	C84.714355,1.000000 86.428719,1.000000 88.571533,1.000000 
z"/>
<path fill="#4397F4" opacity="1.000000" stroke="none" 
	d="
M77.333328,115.000000 
	C76.896461,114.134811 76.792923,113.269615 76.841064,112.180023 
	C77.571869,112.787521 78.150978,113.619415 78.865051,114.725655 
	C78.555557,115.000000 78.111107,115.000000 77.333328,115.000000 
z"/>
<path fill="#4397F4" opacity="1.000000" stroke="none" 
	d="
M12.707607,112.087509 
	C12.757051,112.797585 12.508336,113.607582 12.129810,114.708786 
	C11.555555,115.000000 11.111111,115.000000 10.333335,115.000000 
	C10.803151,114.062477 11.606299,113.124954 12.707607,112.087509 
z"/>
<path fill="#4397F4" opacity="1.000000" stroke="none" 
	d="
M65.723022,113.079628 
	C66.005074,113.426788 66.002464,113.876419 65.999924,114.663025 
	C65.555557,115.000000 65.111107,115.000000 64.333328,115.000000 
	C64.479462,114.394035 64.958916,113.788071 65.723022,113.079628 
z"/>
<path fill="#2E82E0" opacity="1.000000" stroke="none" 
	d="
M8.750000,1.000000 
	C9.000000,1.000000 8.637336,1.210093 8.637336,1.210093 
	C8.637336,1.210093 8.228673,1.170347 8.114336,1.085173 
	C8.000000,1.000000 8.500000,1.000000 8.750000,1.000000 
z"/>
<path fill="#237DE3" opacity="1.000000" stroke="none" 
	d="
M103.995621,25.994747 
	C103.378639,29.083647 102.765732,32.177578 102.070442,35.644245 
	C101.988060,36.016979 101.987213,36.472355 101.720901,36.908272 
	C100.290657,38.992199 99.126724,40.640209 97.759735,42.575714 
	C96.333488,40.427883 95.176247,38.685158 93.957024,36.638596 
	C93.600479,35.560493 93.305916,34.786228 92.927567,33.620438 
	C92.564873,30.788185 92.285965,28.347452 92.007057,25.906721 
	C92.250168,25.134197 92.493271,24.361673 93.178619,23.192419 
	C95.035851,21.092894 96.450844,19.390099 98.071571,17.439716 
	C99.184402,18.804897 100.093681,19.920359 101.002953,21.035820 
	C101.205284,21.547428 101.407623,22.059036 101.828354,23.113266 
	C102.697380,24.434874 103.348022,25.213861 103.998657,25.992847 
	C103.998657,25.992847 103.999687,25.999781 103.995621,25.994747 
z"/>
<path fill="#237DE3" opacity="1.000000" stroke="none" 
	d="
M66.008072,26.825552 
	C66.994507,24.590740 68.064034,22.388103 68.945160,20.112514 
	C69.922462,17.588541 71.424500,17.423935 73.741394,18.926899 
	C74.316948,19.485870 74.596756,19.952862 74.789665,20.938816 
	C75.468605,22.653957 76.234436,23.850134 77.000259,25.046310 
	C77.000259,25.046310 76.998894,25.470213 76.997391,26.124218 
	C76.991920,28.524324 76.987946,30.270426 76.842270,32.331074 
	C76.430008,33.524071 76.159447,34.402519 75.594910,35.091667 
	C73.074524,31.207714 71.447479,26.823454 66.008072,26.825552 
z"/>
<path fill="#378AE7" opacity="1.000000" stroke="none" 
	d="
M76.983978,32.016525 
	C76.987946,30.270426 76.991920,28.524324 76.994965,26.336157 
	C81.692719,28.990129 86.493240,28.846743 91.687469,26.126350 
	C92.285965,28.347452 92.564873,30.788185 92.590012,33.491241 
	C87.648170,29.379911 82.287453,30.951200 76.983978,32.016525 
z"/>
<path fill="#2E82E0" opacity="1.000000" stroke="none" 
	d="
M101.155823,20.765100 
	C100.093681,19.920359 99.184402,18.804897 98.071571,17.439716 
	C96.450844,19.390099 95.035851,21.092894 93.308167,22.916153 
	C95.849449,18.316099 95.702774,13.449368 93.859665,8.220948 
	C95.182663,9.713174 96.350174,11.476846 97.721672,13.548670 
	C99.074379,12.307641 100.231407,11.246143 101.694244,10.074747 
	C101.769600,13.474692 101.539146,16.984537 101.155823,20.765100 
z"/>
<path fill="#2E82E0" opacity="1.000000" stroke="none" 
	d="
M76.941093,24.718132 
	C76.234436,23.850134 75.468605,22.653957 74.855080,21.206869 
	C75.632233,22.100622 76.257080,23.245287 76.941093,24.718132 
z"/>
<path fill="#FCFDFF" opacity="1.000000" stroke="none" 
	d="
M65.003639,88.981789 
	C64.527397,88.145561 64.051163,87.309334 63.456413,85.795898 
	C63.352131,82.334877 63.361938,79.551041 63.381763,76.767273 
	C63.403511,73.713585 64.550812,71.703255 68.323761,71.898087 
	C69.109512,71.912071 69.559814,71.864990 70.473495,71.886826 
	C77.437012,71.955734 83.937126,71.955734 91.076118,71.955734 
	C88.329140,77.063408 85.956520,81.474998 83.378571,86.054565 
	C82.771317,86.789391 82.369400,87.356239 81.967484,87.923088 
	C80.879013,88.299324 79.790535,88.675568 78.358429,89.124611 
	C77.839249,89.159386 77.663712,89.121361 76.769287,89.065903 
	C72.368149,89.026237 68.685898,89.004013 65.003639,88.981789 
z"/>
<path fill="#328DF3" opacity="1.000000" stroke="none" 
	d="
M93.003662,81.034218 
	C94.606606,79.326492 96.209549,77.618774 97.991783,75.720039 
	C99.108238,76.731354 100.255180,77.770287 101.708542,78.921761 
	C102.629829,80.456299 103.244720,81.878304 103.926620,83.624878 
	C104.030090,90.356232 101.232765,95.688454 97.320663,100.837784 
	C96.804993,100.448997 96.603996,99.939697 96.139435,98.854050 
	C94.466278,92.913483 90.288750,88.035141 93.007706,81.718391 
	C93.006325,81.490799 93.003662,81.034218 93.003662,81.034218 
z"/>
<path fill="#4397F4" opacity="1.000000" stroke="none" 
	d="
M93.009079,81.945984 
	C90.288750,88.035141 94.466278,92.913483 95.963951,98.640244 
	C95.343307,98.363411 94.215050,97.843803 93.992821,97.065506 
	C92.342537,91.285820 88.757065,88.197342 82.292511,88.143295 
	C82.369400,87.356239 82.771317,86.789391 83.811943,86.074219 
	C88.330063,86.806862 90.764175,84.579865 93.009079,81.945984 
z"/>
<path fill="#FDFEFF" opacity="1.000000" stroke="none" 
	d="
M39.014385,89.169487 
	C38.562370,89.129684 38.110352,89.089890 37.322201,89.111298 
	C36.986065,89.172501 36.524529,89.035294 36.122673,88.721725 
	C35.434322,87.601532 35.147831,86.794922 35.045319,85.691162 
	C37.302151,81.862663 39.187725,78.199371 41.537918,74.863396 
	C42.509262,73.484627 44.476925,72.807762 46.324898,71.884125 
	C47.109234,71.920555 47.560131,71.884537 48.321976,72.013161 
	C51.620949,76.382675 55.115669,80.508759 50.760021,85.855682 
	C50.760021,85.855682 50.855831,85.886795 50.543293,86.057434 
	C48.595428,87.151993 47.055923,88.460365 45.299431,88.898170 
	C43.305733,89.395103 41.117851,89.112946 39.014385,89.169487 
z"/>
<path fill="#328DF3" opacity="1.000000" stroke="none" 
	d="
M22.054043,93.657974 
	C20.732677,95.800377 19.471077,97.637802 17.810371,100.056488 
	C16.463322,98.206306 15.459456,96.827499 14.232481,95.206337 
	C13.760715,94.168686 13.512059,93.373390 13.055553,91.921074 
	C12.564425,88.490891 12.281147,85.717712 11.997869,82.944542 
	C12.242903,82.161499 12.487938,81.378448 13.147356,80.210083 
	C14.042766,79.216705 14.523791,78.608658 15.256993,77.829720 
	C17.092976,75.341377 19.006815,75.845718 21.002861,77.384422 
	C21.336447,79.166191 21.665806,80.580322 22.071339,82.348190 
	C22.428955,85.475937 22.710400,88.249939 22.991844,91.023941 
	C22.699165,91.800293 22.406487,92.576645 22.054043,93.657974 
z"/>
<path fill="#4397F4" opacity="1.000000" stroke="none" 
	d="
M23.347443,90.890930 
	C22.710400,88.249939 22.428955,85.475937 22.401684,82.473846 
	C25.710701,86.799080 30.373541,86.108253 34.861336,85.988304 
	C35.147831,86.794922 35.434322,87.601532 35.883484,88.694305 
	C31.931786,89.572952 27.817411,90.165443 23.347443,90.890930 
z"/>
<path fill="#FDFEFF" opacity="1.000000" stroke="none" 
	d="
M65.751663,26.873739 
	C71.447479,26.823454 73.074524,31.207714 75.639450,35.451214 
	C79.095970,40.110279 78.575867,43.466908 73.574463,46.031906 
	C70.824036,47.452362 68.412880,48.806469 65.658264,50.067528 
	C63.860592,48.308208 62.174301,46.790310 60.996078,44.947567 
	C57.591087,39.622158 54.390629,34.165977 51.089279,28.475639 
	C51.051559,27.810173 51.034435,27.430206 51.017315,27.050241 
	C55.368481,27.014711 59.719643,26.979179 64.529633,26.870745 
	C65.157379,26.839201 65.326317,26.880564 65.751663,26.873739 
z"/>
<path fill="#237DE3" opacity="1.000000" stroke="none" 
	d="
M51.012447,26.796577 
	C51.034435,27.430206 51.051559,27.810173 51.015869,28.797352 
	C50.652039,30.226160 50.341022,31.047758 49.765274,31.661110 
	C48.435299,30.185894 47.370068,28.918924 45.893044,27.162178 
	C43.673512,30.230108 41.924412,32.647789 39.881649,34.960175 
	C39.064640,34.251606 38.541294,33.648335 38.168659,32.772465 
	C38.544994,29.644670 38.770626,26.789469 39.061195,23.668797 
	C39.404465,22.941454 39.682793,22.479582 40.278908,21.905272 
	C41.869198,20.622272 43.141701,19.451714 44.560120,18.146929 
	C46.830360,20.926003 48.917355,23.480753 51.004345,26.035505 
	C51.005424,26.204643 51.006500,26.373779 51.012447,26.796577 
z"/>
<path fill="#2E82E0" opacity="1.000000" stroke="none" 
	d="
M50.930618,25.676201 
	C48.917355,23.480753 46.830360,20.926003 44.560120,18.146929 
	C43.141701,19.451714 41.869198,20.622272 40.366631,21.537767 
	C40.424843,17.835531 40.713120,14.388362 41.001392,10.941192 
	C43.746273,12.909124 46.064537,13.018932 47.759468,9.192599 
	C46.440647,14.840748 47.973278,20.197397 50.930618,25.676201 
z"/>
<path fill="#237DE3" opacity="1.000000" stroke="none" 
	d="
M11.220419,31.222641 
	C11.035130,30.249731 11.029267,29.485764 11.037329,28.338692 
	C11.353308,27.194485 11.655364,26.433384 12.289263,25.237686 
	C13.414614,23.526505 14.208121,22.249918 15.001631,20.973331 
	C15.294143,20.197420 15.586654,19.421507 16.222454,18.225796 
	C17.632109,18.691809 18.838621,19.456341 19.733572,20.490498 
	C21.258881,22.253063 22.588465,24.185007 23.999510,26.258259 
	C23.998743,26.470722 23.993713,26.895624 23.993885,27.324869 
	C23.978085,29.168816 23.962116,30.583519 23.768772,32.211956 
	C23.390383,32.937485 23.189365,33.449284 22.757114,34.210217 
	C21.014940,37.030758 19.503998,39.602158 17.700836,42.670879 
	C15.486654,38.884853 13.752105,35.918945 12.017556,32.953041 
	C11.811653,32.445889 11.605749,31.938738 11.220419,31.222641 
z"/>
<path fill="#2E82E0" opacity="1.000000" stroke="none" 
	d="
M24.000277,26.045794 
	C22.588465,24.185007 21.258881,22.253063 19.733572,20.490498 
	C18.838621,19.456341 17.632109,18.691809 16.281586,17.919983 
	C15.232794,14.862355 14.468159,11.690742 13.859705,8.238113 
	C15.094360,9.592162 16.172834,11.227225 17.748142,13.615532 
	C19.506886,10.617111 21.018532,8.039955 22.915310,5.483221 
	C23.208065,6.301259 23.392933,7.302629 22.979923,7.864600 
	C19.324175,12.838873 20.191462,17.758724 22.871576,22.762432 
	C23.410980,23.769485 23.632301,24.946917 24.000277,26.045794 
z"/>
<path fill="#2E82E0" opacity="1.000000" stroke="none" 
	d="
M14.689550,21.087517 
	C14.208121,22.249918 13.414614,23.526505 12.311290,24.922939 
	C12.793473,23.762426 13.585471,22.482065 14.689550,21.087517 
z"/>
<path fill="#2E82E0" opacity="1.000000" stroke="none" 
	d="
M11.884167,4.179284 
	C12.300441,4.463279 12.591097,4.953775 12.956017,5.722468 
	C12.606370,5.462372 12.182460,4.924079 11.884167,4.179284 
z"/>
<path fill="#2E82E0" opacity="1.000000" stroke="none" 
	d="
M103.967941,25.662472 
	C103.348022,25.213861 102.697380,24.434874 102.004776,23.327305 
	C102.620941,23.776514 103.279076,24.554306 103.967941,25.662472 
z"/>
<path fill="#4397F4" opacity="1.000000" stroke="none" 
	d="
M11.746755,83.211815 
	C12.281147,85.717712 12.564425,88.490891 12.925276,91.634842 
	C10.165392,90.966789 7.289980,90.017418 4.511848,88.838760 
	C3.586543,88.446182 2.910550,87.465973 2.063701,86.379326 
	C5.169757,85.162529 8.332699,84.320808 11.746755,83.211815 
z"/>
<path fill="#2C87EC" opacity="1.000000" stroke="none" 
	d="
M102.940193,52.646954 
	C104.704826,60.192970 101.802643,66.121338 97.273438,71.550842 
	C96.615768,70.935463 96.337196,70.463043 95.970055,69.629303 
	C94.450165,63.908958 90.285568,59.030834 93.007706,52.712906 
	C93.006592,52.484970 93.004265,52.029099 93.316963,51.911819 
	C95.028236,50.119717 96.426804,48.444901 97.868500,46.718441 
	C99.334320,47.892052 100.668823,48.960529 102.003326,50.029007 
	C102.296234,50.800583 102.589134,51.572155 102.940193,52.646954 
z"/>
<path fill="#378AE7" opacity="1.000000" stroke="none" 
	d="
M101.928459,49.667698 
	C100.668823,48.960529 99.334320,47.892052 97.868500,46.718441 
	C96.426804,48.444901 95.028236,50.119717 93.380173,51.570297 
	C93.420853,50.230453 93.711021,49.114845 94.233063,47.749100 
	C94.563828,45.511730 94.785736,43.520546 94.722038,41.538532 
	C94.672607,40.000557 94.266541,38.474045 94.018997,36.942432 
	C95.176247,38.685158 96.333488,40.427883 97.759735,42.575714 
	C99.126724,40.640209 100.290657,38.992199 101.722862,37.135956 
	C101.572472,41.049797 98.862411,45.146420 101.928459,49.667698 
z"/>
<path fill="#2C87EC" opacity="1.000000" stroke="none" 
	d="
M11.005656,59.998825 
	C11.663499,57.908897 12.314570,55.819302 13.268958,53.157829 
	C15.385820,50.402142 17.199366,48.218330 19.075092,46.303818 
	C19.413992,47.047245 19.690710,47.521381 20.042381,48.332390 
	C20.745770,50.112988 21.374207,51.556709 22.082233,53.361786 
	C26.238937,60.848362 20.611959,65.494102 18.050228,71.814186 
	C16.355017,69.352585 15.184510,67.652901 14.014004,65.953217 
	C13.764530,65.160957 13.515056,64.368706 13.065960,62.986031 
	C12.244467,61.593075 11.622595,60.790539 11.000723,59.988003 
	C11.000723,59.988003 10.998885,59.999157 11.005656,59.998825 
z"/>
<path fill="#3F92EF" opacity="1.000000" stroke="none" 
	d="
M13.858812,66.220001 
	C15.184510,67.652901 16.355017,69.352585 18.050228,71.814186 
	C20.611959,65.494102 26.238937,60.848362 22.333008,53.358841 
	C22.671398,52.993073 22.838606,52.991592 23.231001,53.229752 
	C24.900713,54.638840 26.345242,55.808292 27.721169,57.313858 
	C26.085630,61.434361 24.518694,65.218742 22.630516,69.129379 
	C18.987337,71.355484 20.423248,74.258797 20.998634,77.016785 
	C19.006815,75.845718 17.092976,75.341377 15.005224,77.828957 
	C14.333471,77.998573 14.165663,77.998070 13.997854,77.997559 
	C16.733879,74.088196 14.210527,70.313263 13.858812,66.220001 
z"/>
<path fill="#3F92EF" opacity="1.000000" stroke="none" 
	d="
M11.031067,60.318810 
	C11.622595,60.790539 12.244467,61.593075 12.935208,62.701836 
	C12.356522,62.221912 11.708966,61.435764 11.031067,60.318810 
z"/>
<path fill="#4397F4" opacity="1.000000" stroke="none" 
	d="
M13.813276,78.218628 
	C14.165663,77.998070 14.333471,77.998573 14.753048,77.999847 
	C14.523791,78.608658 14.042766,79.216705 13.276611,79.929382 
	C13.203888,79.502571 13.416294,78.971138 13.813276,78.218628 
z"/>
<path fill="#378AE7" opacity="1.000000" stroke="none" 
	d="
M19.012913,46.034523 
	C17.199366,48.218330 15.385820,50.402142 13.302020,52.789505 
	C12.860497,52.994678 12.689229,52.996296 12.261102,52.999260 
	C15.279049,47.461491 16.592749,41.931744 12.210571,36.254528 
	C11.702555,35.596375 11.859321,34.425083 11.862717,33.222366 
	C13.752105,35.918945 15.486654,38.884853 17.700836,42.670879 
	C19.503998,39.602158 21.014940,37.030758 22.911657,34.479603 
	C21.869259,38.344742 20.441086,42.189632 19.012913,46.034523 
z"/>
<path fill="#338CF0" opacity="1.000000" stroke="none" 
	d="
M51.240784,85.883423 
	C55.115669,80.508759 51.620949,76.382675 48.317337,71.654091 
	C48.003445,70.408424 48.005138,69.686455 48.133369,68.682465 
	C48.498085,67.614281 48.736259,66.828117 49.214752,65.785202 
	C50.047157,64.545715 50.598625,63.535652 51.238567,62.585148 
	C53.660648,58.987644 61.880859,58.696926 64.028297,62.389771 
	C65.730339,65.316704 66.695786,68.671959 67.988304,71.837029 
	C64.550812,71.703255 63.403511,73.713585 63.381763,76.767273 
	C63.361938,79.551041 63.352131,82.334877 63.268009,85.573685 
	C59.372589,85.989510 55.547070,85.950333 51.240784,85.883423 
z"/>
<path fill="#358FF3" opacity="1.000000" stroke="none" 
	d="
M39.093277,89.513199 
	C41.117851,89.112946 43.305733,89.395103 45.299431,88.898170 
	C47.055923,88.460365 48.595428,87.151993 50.544796,86.007080 
	C49.095081,90.478943 47.331329,95.171783 45.567577,99.864616 
	C44.906075,99.887993 44.244572,99.911369 43.583073,99.934746 
	C42.112770,96.575470 40.642467,93.216194 39.093277,89.513199 
z"/>
<path fill="#328DF3" opacity="1.000000" stroke="none" 
	d="
M65.156708,89.296211 
	C68.685898,89.004013 72.368149,89.026237 76.504173,89.113853 
	C75.333084,92.778984 73.708229,96.378723 71.348808,101.605812 
	C68.893776,96.729439 67.101768,93.170036 65.156708,89.296211 
z"/>
<path fill="#217BDF" opacity="1.000000" stroke="none" 
	d="
M23.999510,26.258259 
	C23.632301,24.946917 23.410980,23.769485 22.871576,22.762432 
	C20.191462,17.758724 19.324175,12.838873 22.979923,7.864600 
	C23.392933,7.302629 23.208065,6.301259 23.146439,5.234174 
	C23.197096,4.455978 23.401756,3.947251 23.784035,3.227457 
	C28.434767,3.221718 32.907879,3.427046 37.702354,3.838655 
	C39.013214,6.100519 40.002708,8.156101 40.996796,10.576437 
	C40.713120,14.388362 40.424843,17.835531 40.048843,21.650206 
	C39.682793,22.479582 39.404465,22.941454 38.821434,23.940889 
	C35.440788,28.510965 31.030918,29.244930 23.993713,26.895624 
	C23.993713,26.895624 23.998743,26.470722 23.999510,26.258259 
z"/>
<path fill="#368EF1" opacity="1.000000" stroke="none" 
	d="
M96.058632,69.990623 
	C96.337196,70.463043 96.615768,70.935463 96.961906,71.675156 
	C95.735344,74.736023 94.441208,77.529625 93.075363,80.678726 
	C93.003662,81.034218 93.006325,81.490799 93.007706,81.718391 
	C90.764175,84.579865 88.330063,86.806862 84.017281,85.906235 
	C85.956520,81.474998 88.329140,77.063408 91.076118,71.955734 
	C83.937126,71.955734 77.437012,71.955734 70.472237,71.582344 
	C70.006989,70.802986 70.006386,70.397011 70.379684,69.913742 
	C71.981438,69.493881 73.209290,69.151329 74.872452,68.863770 
	C81.165199,68.596100 87.022629,68.273438 93.126022,68.154678 
	C94.267540,68.902603 95.163086,69.446617 96.058632,69.990623 
z"/>
<path fill="#2A84E7" opacity="1.000000" stroke="none" 
	d="
M93.957016,36.638596 
	C94.266541,38.474045 94.672607,40.000557 94.722038,41.538532 
	C94.785736,43.520546 94.563828,45.511730 93.765335,47.749340 
	C86.681732,47.321663 80.297737,46.643612 73.913734,45.965557 
	C78.575867,43.466908 79.095970,40.110279 75.933441,35.640514 
	C76.159447,34.402519 76.430008,33.524071 76.842270,32.331074 
	C82.287453,30.951200 87.648170,29.379911 92.673805,33.882767 
	C93.305916,34.786228 93.600479,35.560493 93.957016,36.638596 
z"/>
<path fill="#3F92EF" opacity="1.000000" stroke="none" 
	d="
M70.005783,69.991043 
	C70.006386,70.397011 70.006989,70.802986 70.008850,71.513428 
	C69.559814,71.864990 69.109512,71.912071 68.323761,71.898087 
	C66.695786,68.671959 65.730339,65.316704 64.028297,62.389771 
	C61.880859,58.696926 53.660648,58.987644 51.238567,62.585148 
	C50.598625,63.535652 50.047157,64.545715 49.065163,65.510773 
	C49.438622,62.314274 50.201977,59.135433 51.346893,56.119026 
	C56.913334,57.010731 62.411167,59.086864 66.155182,53.241722 
	C65.646362,57.167465 64.393372,60.776283 67.070328,64.292290 
	C68.344948,65.966415 69.045296,68.077751 70.005783,69.991043 
z"/>
<path fill="#3890F1" opacity="1.000000" stroke="none" 
	d="
M21.002861,77.384422 
	C20.423248,74.258797 18.987337,71.355484 22.849873,69.399445 
	C26.137136,74.375557 28.883804,79.207855 31.910601,84.532997 
	C35.534737,78.601479 38.772488,73.302353 42.240463,68.213409 
	C43.637257,69.265549 44.803833,70.107483 45.977417,71.164948 
	C45.984425,71.380470 45.991459,71.811676 45.991459,71.811676 
	C44.476925,72.807762 42.509262,73.484627 41.537918,74.863396 
	C39.187725,78.199371 37.302151,81.862663 35.045319,85.691162 
	C30.373541,86.108253 25.710701,86.799080 22.325512,82.120110 
	C21.665806,80.580322 21.336447,79.166191 21.002861,77.384422 
z"/>
<path fill="#3F92EF" opacity="1.000000" stroke="none" 
	d="
M46.324898,71.884125 
	C45.991459,71.811676 45.984425,71.380470 46.084930,70.885971 
	C46.792568,69.915810 47.399700,69.440147 48.006828,68.964493 
	C48.005138,69.686455 48.003445,70.408424 48.006393,71.489456 
	C47.560131,71.884537 47.109234,71.920555 46.324898,71.884125 
z"/>
<path fill="#2F87EA" opacity="1.000000" stroke="none" 
	d="
M66.004028,52.964458 
	C62.411167,59.086864 56.913334,57.010731 51.096123,55.892036 
	C46.619720,55.723515 42.775646,55.944412 38.635635,56.095032 
	C37.871777,55.692711 37.403862,55.360664 37.110466,54.782906 
	C37.334232,50.716427 35.129498,52.878189 33.319656,53.138687 
	C32.176826,53.148403 31.346972,53.180553 30.121239,53.049397 
	C27.487194,52.590828 25.249029,52.295567 22.870478,51.683285 
	C22.486086,50.245907 22.242077,49.125557 22.352835,47.793915 
	C29.180025,47.042389 35.652451,46.502155 42.452019,46.177895 
	C45.330952,46.928432 47.870003,47.826679 50.437355,47.916569 
	C54.837532,48.070637 56.802265,44.390549 54.683201,40.452621 
	C53.141026,37.586750 51.581692,34.730110 50.030010,31.869356 
	C50.341022,31.047758 50.652039,30.226160 51.036461,29.082851 
	C54.390629,34.165977 57.591087,39.622158 60.996078,44.947567 
	C62.174301,46.790310 63.860592,48.308208 65.658142,50.418472 
	C66.002319,51.563129 66.003174,52.263794 66.004028,52.964458 
z"/>
<path fill="#2D87EB" opacity="1.000000" stroke="none" 
	d="
M66.155182,53.241722 
	C66.003174,52.263794 66.002319,51.563129 66.001595,50.511520 
	C68.412880,48.806469 70.824036,47.452362 73.574463,46.031906 
	C80.297737,46.643612 86.681732,47.321663 93.533463,47.999474 
	C93.711021,49.114845 93.420853,50.230453 93.067474,51.687580 
	C93.004265,52.029099 93.006592,52.484970 92.743332,52.918922 
	C91.057518,54.560940 89.634979,55.769005 87.989716,56.644623 
	C83.883942,56.259296 78.817307,54.671650 76.407944,56.529713 
	C73.164841,59.030746 70.368042,63.975552 74.437134,68.808777 
	C73.209290,69.151329 71.981438,69.493881 70.379684,69.913742 
	C69.045296,68.077751 68.344948,65.966415 67.070328,64.292290 
	C64.393372,60.776283 65.646362,57.167465 66.155182,53.241722 
z"/>
<path fill="#2A84E7" opacity="1.000000" stroke="none" 
	d="
M42.124874,45.961918 
	C35.652451,46.502155 29.180025,47.042389 22.014656,47.790268 
	C20.870285,47.997116 20.418858,47.996319 19.967430,47.995518 
	C19.690710,47.521381 19.413992,47.047245 19.075092,46.303818 
	C20.441086,42.189632 21.869259,38.344742 23.142891,34.230465 
	C23.189365,33.449284 23.390383,32.937485 24.178825,32.129364 
	C29.287994,31.094385 33.890373,29.474125 38.017952,33.045059 
	C38.541294,33.648335 39.064640,34.251606 39.804703,35.334366 
	C36.920292,39.984665 41.551510,42.552742 42.124874,45.961918 
z"/>
<path fill="#FDFEFF" opacity="1.000000" stroke="none" 
	d="
M42.452019,46.177895 
	C41.551510,42.552742 36.920292,39.984665 40.098370,35.439659 
	C41.924412,32.647789 43.673512,30.230108 45.893044,27.162178 
	C47.370068,28.918924 48.435299,30.185894 49.765274,31.661110 
	C51.581692,34.730110 53.141026,37.586750 54.683201,40.452621 
	C56.802265,44.390549 54.837532,48.070637 50.437355,47.916569 
	C47.870003,47.826679 45.330952,46.928432 42.452019,46.177895 
z"/>
<path fill="#378AE7" opacity="1.000000" stroke="none" 
	d="
M38.168659,32.772465 
	C33.890373,29.474125 29.287994,31.094385 24.356199,31.915628 
	C23.962116,30.583519 23.978085,29.168816 23.993885,27.324869 
	C31.030918,29.244930 35.440788,28.510965 38.756493,24.206362 
	C38.770626,26.789469 38.544994,29.644670 38.168659,32.772465 
z"/>
<path fill="#3F92EF" opacity="1.000000" stroke="none" 
	d="
M88.212433,56.977066 
	C89.634979,55.769005 91.057518,54.560940 92.744446,53.146858 
	C90.285568,59.030834 94.450165,63.908958 95.970055,69.629303 
	C95.163086,69.446617 94.267540,68.902603 93.170532,67.785599 
	C91.383514,63.800766 89.797974,60.388916 88.212433,56.977066 
z"/>
<path fill="#378AE7" opacity="1.000000" stroke="none" 
	d="
M20.042381,48.332390 
	C20.418858,47.996319 20.870285,47.997116 21.659893,48.001560 
	C22.242077,49.125557 22.486086,50.245907 22.868557,51.930733 
	C23.007023,52.495205 23.005816,52.990116 23.005816,52.990116 
	C22.838606,52.991592 22.671398,52.993073 22.253418,52.997490 
	C21.374207,51.556709 20.745770,50.112988 20.042381,48.332390 
z"/>
<path fill="#FDFEFF" opacity="1.000000" stroke="none" 
	d="
M36.935947,55.028625 
	C37.403862,55.360664 37.871777,55.692711 38.809937,56.387337 
	C45.809246,60.495193 46.439320,60.365993 42.297413,67.059982 
	C42.130230,67.330177 42.102787,67.686844 42.010239,68.003220 
	C38.772488,73.302353 35.534737,78.601479 31.910601,84.532997 
	C28.883804,79.207855 26.137136,74.375557 23.171114,69.273186 
	C24.518694,65.218742 26.085630,61.434361 27.891026,57.025711 
	C28.925362,55.338531 29.721239,54.275620 30.517117,53.212704 
	C31.346972,53.180553 32.176826,53.148403 33.509525,53.403549 
	C34.986897,54.136776 35.961422,54.582699 36.935947,55.028625 
z"/>
<path fill="#2D87EB" opacity="1.000000" stroke="none" 
	d="
M30.121239,53.049397 
	C29.721239,54.275620 28.925362,55.338531 27.959627,56.689594 
	C26.345242,55.808292 24.900713,54.638840 23.231001,53.229752 
	C23.005816,52.990116 23.007023,52.495205 23.008942,52.247757 
	C25.249029,52.295567 27.487194,52.590828 30.121239,53.049397 
z"/>
<path fill="#2D87EB" opacity="1.000000" stroke="none" 
	d="
M42.240463,68.213409 
	C42.102787,67.686844 42.130230,67.330177 42.297413,67.059982 
	C46.439320,60.365993 45.809246,60.495193 39.105881,56.457615 
	C42.775646,55.944412 46.619720,55.723515 50.714561,55.729603 
	C50.201977,59.135433 49.438622,62.314274 48.824852,65.767540 
	C48.736259,66.828117 48.498085,67.614281 48.133369,68.682465 
	C47.399700,69.440147 46.792568,69.915810 46.077927,70.670441 
	C44.803833,70.107483 43.637257,69.265549 42.240463,68.213409 
z"/>
<path fill="#F9FCFE" opacity="1.000000" stroke="none" 
	d="
M87.989716,56.644623 
	C89.797974,60.388916 91.383514,63.800766 92.924561,67.581696 
	C87.022629,68.273438 81.165199,68.596100 74.872452,68.863770 
	C70.368042,63.975552 73.164841,59.030746 76.407944,56.529713 
	C78.817307,54.671650 83.883942,56.259296 87.989716,56.644623 
z"/>
<path fill="#2D87EB" opacity="1.000000" stroke="none" 
	d="
M37.110466,54.782906 
	C35.961422,54.582699 34.986897,54.136776 33.822502,53.425987 
	C35.129498,52.878189 37.334232,50.716427 37.110466,54.782906 
z"/>
</svg>